<svg width="12" height="10" viewBox="0 0 12 10" fill="none" xmlns="http://www.w3.org/2000/svg">
<path d="M10.2307 1.49051C9.49482 1.16784 8.70796 0.933333 7.88533 0.799805C7.7843 0.970983 7.66626 1.20122 7.58489 1.38438C6.7104 1.26113 5.84396 1.26113 4.98556 1.38438C4.90419 1.20122 4.78348 0.970983 4.68155 0.799805C3.85802 0.933333 3.07026 1.1687 2.33436 1.49221C0.850048 3.59424 0.447675 5.64405 0.648862 7.66476C1.63334 8.35374 2.58741 8.77227 3.52538 9.04615C3.75697 8.74745 3.96352 8.42992 4.14146 8.09527C3.80257 7.9746 3.47799 7.82568 3.1713 7.65279C3.25267 7.5963 3.33225 7.53724 3.40914 7.47647C5.27973 8.2964 7.31217 8.2964 9.16041 7.47647C9.2382 7.53724 9.31777 7.5963 9.39825 7.65279C9.09065 7.82652 8.76519 7.97544 8.4263 8.09613C8.60424 8.42992 8.8099 8.74831 9.04238 9.047C9.98125 8.77312 10.9362 8.3546 11.9207 7.66476C12.1568 5.32225 11.5174 3.29126 10.2307 1.49051ZM4.3963 6.42205C3.83477 6.42205 3.37427 5.93077 3.37427 5.33251C3.37427 4.73426 3.82494 4.24214 4.3963 4.24214C4.96768 4.24214 5.42817 4.7334 5.41833 5.33251C5.41922 5.93077 4.96768 6.42205 4.3963 6.42205ZM8.17325 6.42205C7.61172 6.42205 7.15122 5.93077 7.15122 5.33251C7.15122 4.73426 7.60187 4.24214 8.17325 4.24214C8.74462 4.24214 9.20512 4.7334 9.19528 5.33251C9.19528 5.93077 8.74462 6.42205 8.17325 6.42205Z" fill="#FFF9EE"/>
</svg>
