<svg width="125" height="125" viewBox="0 0 125 125" fill="none" xmlns="http://www.w3.org/2000/svg">
<g clip-path="url(#clip0_889_15076)">
<path d="M115.512 47.3478C116.058 44.9577 115.884 42.3856 114.858 39.9541C113.874 37.6136 112.245 35.7445 110.26 34.4626C108.069 33.0483 106.414 30.9229 105.993 28.3425C105.596 25.9193 104.463 23.5871 102.594 21.718C100.733 19.8489 98.4087 18.7324 95.9938 18.3437C93.248 17.8971 90.8993 16.3505 89.4271 13.9934C88.1204 11.9093 86.1769 10.1974 83.7206 9.19664C81.3718 8.23728 78.899 8.07187 76.5915 8.56809C73.9368 9.13875 71.2406 8.60945 68.9994 7.07943C67.0475 5.75617 64.6988 4.97876 62.1598 4.97876C59.6208 4.97876 57.0818 5.82234 55.0969 7.24484C52.8308 8.86583 50.0685 9.42821 47.3476 8.80793C44.9574 8.26209 42.3853 8.43577 39.9539 9.46129C37.6133 10.4455 35.7442 12.0747 34.4623 14.0513C33.0481 16.243 30.9144 17.8971 28.3423 18.3188C25.9191 18.7158 23.5868 19.8489 21.7177 21.718C19.8486 23.5871 18.7321 25.9028 18.3434 28.3177C17.8968 31.0635 16.3503 33.4122 13.9932 34.8844C11.9091 36.1911 10.1971 38.1429 9.1964 40.5992C8.23704 42.948 8.07163 45.4208 8.56785 47.7282C9.1385 50.383 8.6092 53.0792 7.07919 55.3204C5.75593 57.2722 4.97852 59.621 4.97852 62.16C4.97852 64.699 5.82209 67.238 7.24459 69.2229C8.86558 71.489 9.42797 74.2513 8.80769 76.9722C8.26185 79.3624 8.43552 81.9344 9.46105 84.3659C10.4452 86.7064 12.0745 88.5755 14.0594 89.8574C16.251 91.2717 17.9051 93.4054 18.3269 95.9775C18.7238 98.4007 19.8569 100.733 21.726 102.602C23.5951 104.471 25.9108 105.588 28.3257 105.976C31.0715 106.423 33.4203 107.97 34.8924 110.327C36.1991 112.411 38.1509 114.123 40.6072 115.123C42.956 116.083 45.4288 116.248 47.7363 115.752C50.391 115.181 53.0872 115.711 55.3284 117.241C57.2803 118.564 59.629 119.341 62.168 119.341C64.707 119.341 67.246 118.498 69.2309 117.075C71.497 115.454 74.2593 114.892 76.9802 115.512C79.3704 116.058 81.9425 115.884 84.3739 114.859C86.7144 113.875 88.5836 112.245 89.8655 110.26C91.2797 108.069 93.4134 106.415 95.9855 105.993C98.4087 105.596 100.741 104.463 102.61 102.594C104.479 100.725 105.596 98.409 105.984 95.994C106.431 93.2483 107.978 90.8995 110.335 89.4274C112.419 88.1207 114.131 86.1771 115.131 83.7208C116.091 81.372 116.256 78.8992 115.76 76.5918C115.189 73.937 115.719 71.2409 117.249 68.9996C118.572 67.0478 119.349 64.699 119.349 62.16C119.349 59.621 118.506 57.082 117.083 55.0971C115.462 52.831 114.9 50.0687 115.52 47.3478H115.512ZM54.551 31.7913L58.099 30.6417C59.4636 30.2033 60.5222 28.9132 60.8861 27.2674L61.8372 22.9751C61.9282 22.5781 62.3913 22.5781 62.4823 22.9751L63.4334 27.2674C63.7973 28.9132 64.8642 30.2033 66.2205 30.6417L69.7685 31.7913C70.0993 31.8988 70.0993 32.4612 69.7685 32.5687L66.2205 33.7182C64.8559 34.1566 63.7973 35.4468 63.4334 37.0926L62.4823 41.3849C62.3913 41.7818 61.9282 41.7818 61.8372 41.3849L60.8861 37.0926C60.5222 35.4468 59.4554 34.1566 58.099 33.7182L54.551 32.5687C54.2202 32.4612 54.2202 31.8988 54.551 31.7913ZM99.8726 66.4523C99.8726 86.8139 83.365 103.33 62.9951 103.33H61.3245C40.9628 103.33 24.4469 86.8222 24.4469 66.4523V59.53C24.4469 56.255 41.3267 53.6002 62.1598 53.6002C82.9928 53.6002 99.8726 56.255 99.8726 59.53V66.4523Z" fill="#CA3332"/>
<path d="M26.3163 61.3743H26.2915V66.4523C26.2915 85.7718 42.0052 101.485 61.3247 101.485H62.9953C82.3149 101.485 98.0286 85.7718 98.0286 66.4523V61.3743H98.0038C93.0746 63.7479 78.891 65.4598 62.16 65.4598C45.4291 65.4598 31.2454 63.7479 26.3163 61.3743ZM56.9828 81.8351L53.4348 82.7945C52.0702 83.1667 51.0116 84.2418 50.6477 85.6147L49.6966 89.1957C49.6056 89.5266 49.1425 89.5266 49.0515 89.1957L48.1004 85.6147C47.7365 84.2335 46.6697 83.1584 45.3133 82.7945L41.7653 81.8351C41.4345 81.7442 41.4345 81.2727 41.7653 81.1818L45.3133 80.2224C46.6779 79.8502 47.7365 78.7751 48.1004 77.4022L49.0515 73.8212C49.1425 73.4903 49.6056 73.4903 49.6966 73.8212L50.6477 77.4022C51.0116 78.7834 52.0785 79.8585 53.4348 80.2224L56.9828 81.1818C57.3136 81.2727 57.3136 81.7442 56.9828 81.8351ZM67.3456 81.1818L70.8935 80.2224C72.2581 79.8502 73.3167 78.7751 73.6806 77.4022L74.6317 73.8212C74.7227 73.4903 75.1858 73.4903 75.2768 73.8212L76.2279 77.4022C76.5918 78.7834 77.6587 79.8585 79.015 80.2224L82.563 81.1818C82.8938 81.2727 82.8938 81.7442 82.563 81.8351L79.015 82.7945C77.6504 83.1667 76.5918 84.2418 76.2279 85.6147L75.2768 89.1957C75.1858 89.5266 74.7227 89.5266 74.6317 89.1957L73.6806 85.6147C73.3167 84.2335 72.2499 83.1584 70.8935 82.7945L67.3456 81.8351C67.0147 81.7442 67.0147 81.2727 67.3456 81.1818ZM66.1712 86.7477C66.1712 88.7326 64.5667 90.3371 62.5818 90.3371H61.7465C59.7616 90.3371 58.1572 88.7326 58.1572 86.7477V86.5575H66.1712V86.7477Z" fill="#CA3332"/>
<path d="M62.16 63.5246C80.7352 63.5246 95.7955 61.7382 95.7955 59.53C95.7955 57.3218 80.7352 55.5354 62.16 55.5354C43.5847 55.5354 28.5244 57.3218 28.5244 59.53C28.5244 61.7382 43.5847 63.5246 62.16 63.5246Z" fill="#CA3332"/>
<path d="M124.32 62.16C124.32 59.2985 123.443 56.5527 121.773 54.2287C120.11 51.913 119.54 49.1011 120.177 46.3223C120.805 43.5352 120.557 40.6653 119.44 38.0271C118.374 35.4881 116.587 33.3626 114.288 31.8657C111.881 30.3109 110.335 28.1027 109.93 25.6381C109.466 22.8096 108.143 20.2376 106.109 18.2031C104.074 16.1685 101.527 14.8701 98.7067 14.4152C95.8948 13.9604 93.5129 12.3807 92.0077 9.97405C90.486 7.5343 88.2695 5.67346 85.5982 4.59005C83.0509 3.54798 80.2804 3.30814 77.6008 3.8788C74.8881 4.45772 72.1341 3.92015 69.8349 2.35705C67.5688 0.810495 64.914 0 62.16 0C59.406 0 56.5527 0.876658 54.2287 2.54727C51.913 4.20961 49.1011 4.78027 46.3223 4.14345C43.5352 3.5149 40.6653 3.76301 38.0271 4.87951C35.4881 5.94639 33.3626 7.73278 31.8657 10.0319C30.3109 12.4386 28.0944 13.9852 25.6381 14.3904C22.8096 14.8536 20.2376 16.1768 18.2031 18.2113C16.1768 20.2376 14.8701 22.7931 14.4152 25.6133C13.9604 28.4252 12.3807 30.8071 9.97405 32.3123C7.5343 33.834 5.67346 36.0505 4.59005 38.7218C3.55625 41.2691 3.30814 44.0396 3.8788 46.7192C4.45772 49.4319 3.92015 52.1859 2.35705 54.4851C0.810495 56.7512 0 59.406 0 62.16C0 64.914 0.876658 67.7673 2.54727 70.0913C4.20961 72.407 4.78027 75.2189 4.14345 77.9977C3.5149 80.7848 3.76301 83.6547 4.87951 86.2929C5.94639 88.8319 7.73278 90.9574 10.0319 92.4543C12.4386 94.0091 13.9852 96.2256 14.3904 98.6819C14.8536 101.51 16.1768 104.082 18.2113 106.117C20.2293 108.143 22.7931 109.45 25.6133 109.905C28.4252 110.36 30.8071 111.939 32.3123 114.346C33.834 116.786 36.0505 118.647 38.7218 119.73C41.2691 120.772 44.0396 121.02 46.7192 120.441C49.4319 119.862 52.1859 120.4 54.4851 121.963C56.7512 123.51 59.406 124.32 62.16 124.32C64.914 124.32 67.7673 123.443 70.0913 121.773C72.407 120.11 75.2189 119.548 77.9977 120.177C80.7848 120.813 83.6547 120.557 86.2929 119.44C88.8319 118.374 90.9574 116.587 92.4543 114.288C94.0091 111.881 96.2256 110.335 98.6819 109.93C101.51 109.466 104.082 108.143 106.117 106.109C108.143 104.082 109.45 101.527 109.905 98.6984C110.36 95.8865 111.939 93.5047 114.346 91.9994C116.786 90.4777 118.647 88.2612 119.73 85.5899C120.764 83.0426 121.012 80.2721 120.441 77.5925C119.862 74.8798 120.4 72.1258 121.963 69.8266C123.51 67.5605 124.32 64.9058 124.32 62.1517V62.16ZM119.374 77.8241C119.904 80.2886 119.68 82.8359 118.721 85.1847C117.72 87.641 116.008 89.6755 113.767 91.0814C111.087 92.7603 109.334 95.3986 108.83 98.533C108.408 101.13 107.2 103.487 105.348 105.34C103.479 107.209 101.113 108.424 98.5082 108.854C95.7459 109.309 93.2731 111.021 91.5446 113.693C90.1717 115.81 88.2116 117.456 85.8794 118.44C83.4479 119.465 80.8097 119.697 78.2458 119.118C75.1527 118.415 72.0348 119.044 69.4627 120.896C67.329 122.426 64.8065 123.237 62.1683 123.237C59.53 123.237 57.1895 122.484 55.1054 121.07C53.228 119.796 51.0777 119.134 48.8695 119.134C48.0839 119.134 47.2899 119.217 46.5042 119.383C44.0314 119.912 41.4924 119.68 39.1436 118.729C36.6873 117.729 34.6528 116.017 33.2468 113.775C31.568 111.096 28.9297 109.342 25.7952 108.838C23.1984 108.416 20.8413 107.209 18.9887 105.356C17.1196 103.487 15.9039 101.122 15.4738 98.5165C15.019 95.7542 13.2987 93.2813 10.6357 91.5528C8.51847 90.18 6.87267 88.2199 5.88849 85.8876C4.86297 83.4562 4.6314 80.8179 5.21032 78.2541C5.91331 75.161 5.27649 72.0431 3.4322 69.471C1.90218 67.3372 1.09169 64.8148 1.09169 62.1765C1.09169 59.5383 1.84429 57.1978 3.25852 55.1137C4.98703 52.5747 5.58249 49.5146 4.94567 46.5125C4.41637 44.0479 4.63967 41.5006 5.59903 39.1519C6.59974 36.6956 8.31171 34.6528 10.553 33.2551C13.2326 31.5762 14.9859 28.9297 15.4904 25.8035C15.9122 23.2066 17.1196 20.8496 18.9722 18.997C20.8413 17.1279 23.2066 15.9122 25.8118 15.4821C28.5741 15.0272 31.0469 13.307 32.7754 10.6439C34.1483 8.52674 36.1084 6.88094 38.4406 5.89676C40.8721 4.87124 43.5103 4.63967 46.0742 5.2186C49.1673 5.92158 52.2852 5.29303 54.8573 3.44047C56.991 1.91045 59.5135 1.09996 62.1517 1.09996C64.79 1.09996 67.1305 1.85256 69.2146 3.26679C71.7536 4.9953 74.8136 5.59076 77.8158 4.95394C80.2886 4.42464 82.8276 4.64794 85.1764 5.6073C87.6327 6.60802 89.6672 8.31998 91.0732 10.5612C92.7521 13.2408 95.3903 14.9942 98.5248 15.4986C101.122 15.9204 103.479 17.1279 105.331 18.9887C107.2 20.8578 108.416 23.2232 108.846 25.8283C109.301 28.5906 111.021 31.0635 113.684 32.792C115.802 34.1648 117.447 36.1249 118.432 38.4572C119.457 40.8886 119.689 43.5269 119.11 46.0907C118.407 49.1838 119.044 52.3017 120.888 54.8738C122.418 57.0076 123.228 59.53 123.228 62.1683C123.228 64.8065 122.476 67.147 121.061 69.2312C119.333 71.7702 118.738 74.8302 119.374 77.8323V77.8241Z" fill="#CA3332"/>
</g>
<defs>
<clipPath id="clip0_889_15076">
<rect width="124.32" height="124.32" fill="white"/>
</clipPath>
</defs>
</svg>
