<svg width="1440" height="981" viewBox="0 0 1440 981" fill="none" xmlns="http://www.w3.org/2000/svg">
<mask id="mask0_2010_13" style="mask-type:alpha" maskUnits="userSpaceOnUse" x="0" y="0" width="1440" height="997">
<rect width="1440" height="997" transform="matrix(1 0 0 -1 0 997)" fill="#CA3332"/>
</mask>
<g mask="url(#mask0_2010_13)">
<line y1="975.2" x2="1440" y2="975.2" stroke="white" stroke-opacity="0.1"/>
<line y1="701.6" x2="1440" y2="701.6" stroke="white" stroke-opacity="0.1"/>
<line y1="428" x2="1440" y2="428" stroke="white" stroke-opacity="0.1"/>
<line y1="154.4" x2="1440" y2="154.4" stroke="white" stroke-opacity="0.1"/>
<line y1="906.8" x2="1440" y2="906.8" stroke="white" stroke-opacity="0.1"/>
<line y1="633.2" x2="1440" y2="633.2" stroke="white" stroke-opacity="0.1"/>
<line y1="359.6" x2="1440" y2="359.6" stroke="white" stroke-opacity="0.1"/>
<line y1="86" x2="1440" y2="86" stroke="white" stroke-opacity="0.1"/>
<line y1="838.4" x2="1440" y2="838.4" stroke="white" stroke-opacity="0.1"/>
<line y1="564.8" x2="1440" y2="564.8" stroke="white" stroke-opacity="0.1"/>
<line y1="291.2" x2="1440" y2="291.2" stroke="white" stroke-opacity="0.1"/>
<line y1="17.6" x2="1440" y2="17.6" stroke="white" stroke-opacity="0.1"/>
<line y1="770" x2="1440" y2="770" stroke="white" stroke-opacity="0.1"/>
<line y1="496.4" x2="1440" y2="496.4" stroke="white" stroke-opacity="0.1"/>
<line y1="222.8" x2="1440" y2="222.8" stroke="white" stroke-opacity="0.1"/>
<line x1="70.7" y1="-120.5" x2="70.6999" y2="1319.5" stroke="white" stroke-opacity="0.1"/>
<line x1="139.1" y1="-120.5" x2="139.1" y2="1319.5" stroke="white" stroke-opacity="0.1"/>
<line x1="207.5" y1="-120.5" x2="207.5" y2="1319.5" stroke="white" stroke-opacity="0.1"/>
<line x1="275.9" y1="-120.5" x2="275.9" y2="1319.5" stroke="white" stroke-opacity="0.1"/>
<line x1="344.3" y1="-120.5" x2="344.3" y2="1319.5" stroke="white" stroke-opacity="0.1"/>
<line x1="617.9" y1="-120.5" x2="617.9" y2="1319.5" stroke="white" stroke-opacity="0.1"/>
<line x1="891.5" y1="-120.5" x2="891.5" y2="1319.5" stroke="white" stroke-opacity="0.1"/>
<line x1="1165.1" y1="-120.5" x2="1165.1" y2="1319.5" stroke="white" stroke-opacity="0.1"/>
<line x1="412.7" y1="-120.5" x2="412.7" y2="1319.5" stroke="white" stroke-opacity="0.1"/>
<line x1="686.3" y1="-120.5" x2="686.3" y2="1319.5" stroke="white" stroke-opacity="0.1"/>
<line x1="959.9" y1="-120.5" x2="959.9" y2="1319.5" stroke="white" stroke-opacity="0.1"/>
<line x1="1233.5" y1="-120.5" x2="1233.5" y2="1319.5" stroke="white" stroke-opacity="0.1"/>
<line x1="481.1" y1="-120.5" x2="481.1" y2="1319.5" stroke="white" stroke-opacity="0.1"/>
<line x1="754.7" y1="-120.5" x2="754.7" y2="1319.5" stroke="white" stroke-opacity="0.1"/>
<line x1="1028.3" y1="-120.5" x2="1028.3" y2="1319.5" stroke="white" stroke-opacity="0.1"/>
<line x1="1301.9" y1="-120.5" x2="1301.9" y2="1319.5" stroke="white" stroke-opacity="0.1"/>
<line x1="549.5" y1="-120.5" x2="549.5" y2="1319.5" stroke="white" stroke-opacity="0.1"/>
<line x1="823.1" y1="-120.5" x2="823.1" y2="1319.5" stroke="white" stroke-opacity="0.1"/>
<line x1="1096.7" y1="-120.5" x2="1096.7" y2="1319.5" stroke="white" stroke-opacity="0.1"/>
<line x1="1370.3" y1="-120.5" x2="1370.3" y2="1319.5" stroke="white" stroke-opacity="0.1"/>
</g>
</svg>
