<svg width="1133" height="464" viewBox="0 0 1133 464" fill="none" xmlns="http://www.w3.org/2000/svg">
<path d="M203.4 173.498C197.05 175.754 187.971 181.215 183.497 194.361C179.024 181.226 169.944 175.759 163.598 173.498C169.944 171.241 179.024 165.769 183.498 152.638C187.971 165.768 197.05 171.24 203.4 173.498Z" fill="#160100" stroke="#CA3332"/>
<path d="M41.3999 89.4975C35.05 91.7538 25.9706 97.2154 21.4974 110.361C17.0237 97.2265 7.94363 91.7586 1.59769 89.4981C7.94404 87.2406 17.0241 81.769 21.4977 68.6383C25.9709 81.7679 35.0499 87.2397 41.3999 89.4975Z" fill="#160100" stroke="#CA3332"/>
<path d="M63.3999 435.498C57.05 437.754 47.9706 443.215 43.4974 456.361C39.0237 443.226 29.9436 437.759 23.5977 435.498C29.944 433.241 39.0241 427.769 43.4977 414.638C47.9709 427.768 57.0499 433.24 63.3999 435.498Z" fill="#160100" stroke="#CA3332"/>
<path d="M1131.4 22.4975C1125.05 24.7538 1115.97 30.2154 1111.5 43.3606C1107.02 30.2265 1097.94 24.7586 1091.6 22.4981C1097.94 20.2406 1107.02 14.769 1111.5 1.6383C1115.97 14.7679 1125.05 20.2397 1131.4 22.4975Z" fill="#160100" stroke="#CA3332"/>
<path d="M977.4 226.498C971.05 228.754 961.971 234.215 957.497 247.361C953.024 234.226 943.944 228.759 937.598 226.498C943.944 224.241 953.024 218.769 957.498 205.638C961.971 218.768 971.05 224.24 977.4 226.498Z" fill="#160100" stroke="#CA3332"/>
<path d="M1131.4 271.498C1125.05 273.754 1115.97 279.215 1111.5 292.361C1107.02 279.226 1097.94 273.759 1091.6 271.498C1097.94 269.241 1107.02 263.769 1111.5 250.638C1115.97 263.768 1125.05 269.24 1131.4 271.498Z" fill="#160100" stroke="#CA3332"/>
<path d="M1042.4 441.498C1036.05 443.754 1026.97 449.215 1022.5 462.361C1018.02 449.226 1008.94 443.759 1002.6 441.498C1008.94 439.241 1018.02 433.769 1022.5 420.638C1026.97 433.768 1036.05 439.24 1042.4 441.498Z" fill="#160100" stroke="#CA3332"/>
</svg>
